# This file uses centimeters as units for non-parametric coordinates.

mtllib bodyunder.mtl
g default
v -4.889543 -0.412857 1.420746
v 0.000000 0.645299 2.463893
v 4.889543 -0.412857 1.420746
v -4.625783 1.397838 1.263568
v 0.000000 1.233913 2.897963
v 4.625783 1.397838 1.263568
v -3.842622 5.193547 1.649855
v 0.000000 5.193547 2.221439
v 3.842622 5.193547 1.649855
v -3.339185 5.281672 -1.740489
v 0.000000 6.031482 -2.328319
v 3.339185 5.281672 -1.740489
v -4.581666 1.273199 -1.771934
v 0.000000 1.110237 -3.357512
v 4.581666 1.273199 -1.771934
v -4.173955 -0.412857 -1.377184
v 0.000000 -0.313802 -2.221439
v 4.173955 -0.412857 -1.377184
v -3.068259 -0.401328 2.221439
v -2.660585 -0.619867 -2.371018
v -2.783332 1.037102 -3.501531
v -2.082959 6.031482 -2.328319
v -2.725753 5.193547 2.221439
v -3.068259 1.457104 2.500934
v 3.068259 -0.401328 2.221439
v 2.660585 -0.619867 -2.371018
v 2.783332 1.037102 -3.501531
v 2.082959 6.031482 -2.328319
v 2.725753 5.193547 2.221439
v 3.068259 1.457104 2.500934
v -4.117206 5.229781 0.058107
v -2.725753 6.315397 0.341030
v 0.000000 6.315397 0.341030
v 2.725753 6.315397 0.341030
v 4.117206 5.229781 0.058107
v 4.843314 1.433550 0.058107
v 4.857924 -0.412857 0.136427
v 3.068259 -1.118495 0.394674
v 0.000000 -1.585105 0.026205
v -3.068259 -1.118495 0.394674
v -4.857924 -0.412857 0.136427
v -4.843314 1.433550 0.058107
v -4.316188 3.477214 1.649855
v -2.852934 3.416204 2.695540
v 0.000000 3.353513 2.776160
v 2.852934 3.416204 2.695540
v 4.316188 3.477214 1.649855
v 4.605751 3.484874 0.058107
v 4.338923 3.495845 -1.919076
v 2.679688 3.389407 -4.062324
v 0.000000 3.337661 -3.810120
v -2.679688 3.389407 -4.062324
v -4.338923 3.495845 -1.919076
v -4.605751 3.484874 0.058107
vt 0.375000 0.000000
vt 0.500000 0.000000
vt 0.625000 0.000000
vt 0.375000 0.125000
vt 0.500000 0.125000
vt 0.625000 0.125000
vt 0.375000 0.250000
vt 0.500000 0.250000
vt 0.625000 0.250000
vt 0.375000 0.500000
vt 0.500000 0.500000
vt 0.625000 0.500000
vt 0.375000 0.625000
vt 0.500000 0.625000
vt 0.625000 0.625000
vt 0.375000 0.750000
vt 0.500000 0.750000
vt 0.625000 0.750000
vt 0.375000 1.000000
vt 0.500000 1.000000
vt 0.625000 1.000000
vt 0.875000 0.000000
vt 0.875000 0.125000
vt 0.875000 0.250000
vt 0.125000 0.000000
vt 0.125000 0.125000
vt 0.125000 0.250000
vt 0.427714 0.000000
vt 0.427714 1.000000
vt 0.427714 0.750000
vt 0.427714 0.625000
vt 0.427714 0.500000
vt 0.427714 0.250000
vt 0.427714 0.125000
vt 0.572286 0.000000
vt 0.572286 1.000000
vt 0.572286 0.750000
vt 0.572286 0.625000
vt 0.572286 0.500000
vt 0.572286 0.250000
vt 0.572286 0.125000
vt 0.272208 0.250000
vt 0.375000 0.352792
vt 0.427714 0.352792
vt 0.500000 0.352792
vt 0.572286 0.352792
vt 0.625000 0.352792
vt 0.727792 0.250000
vt 0.727792 0.125000
vt 0.625000 0.897208
vt 0.727792 0.000000
vt 0.572286 0.897208
vt 0.500000 0.897208
vt 0.427714 0.897208
vt 0.272208 0.000000
vt 0.375000 0.897208
vt 0.272208 0.125000
vt 0.375000 0.203585
vt 0.427714 0.203585
vt 0.500000 0.203585
vt 0.572286 0.203585
vt 0.625000 0.203585
vt 0.727792 0.203585
vt 0.625000 0.546415
vt 0.875000 0.203585
vt 0.572286 0.546415
vt 0.500000 0.546415
vt 0.427714 0.546415
vt 0.125000 0.203585
vt 0.375000 0.546415
vt 0.272208 0.203585
vn -0.295244 -0.074678 0.952499
vn -0.110793 -0.653821 0.748494
vn 0.000000 -0.590945 0.806712
vn 0.000000 -0.122342 0.992488
vn 0.295244 -0.074678 0.952499
vn 0.110793 -0.653821 0.748494
vn 0.656624 -0.519766 0.546524
vn 0.828583 0.042729 0.558233
vn -0.160430 0.588177 0.792660
vn -0.234747 0.102610 0.966626
vn 0.000000 0.115983 0.993251
vn 0.000000 0.629304 0.777159
vn 0.160430 0.588177 0.792660
vn 0.234747 0.102610 0.966626
vn 0.807111 0.126259 0.576742
vn 0.697792 0.538343 0.472517
vn -0.205169 0.796189 -0.569200
vn -0.175815 0.971909 0.156467
vn 0.000000 0.979480 0.201541
vn 0.000000 0.823113 -0.567878
vn 0.205169 0.796189 -0.569200
vn 0.175815 0.971909 0.156467
vn 0.796916 0.601604 -0.054746
vn 0.707122 0.581141 -0.402808
vn -0.000000 0.186598 -0.982436
vn -0.285328 0.183430 -0.940713
vn 0.845783 0.228600 -0.482072
vn 0.285328 0.183430 -0.940713
vn -0.196361 -0.777196 -0.597836
vn -0.313887 -0.313459 -0.896225
vn -0.000000 -0.394376 -0.918949
vn 0.000000 -0.831780 -0.555106
vn 0.196361 -0.777196 -0.597836
vn 0.313887 -0.313459 -0.896225
vn 0.853999 -0.120392 -0.506154
vn 0.640263 -0.657859 -0.396592
vn 0.000000 -0.998665 0.051658
vn -0.050089 -0.982522 0.179279
vn 0.746479 -0.660065 -0.084158
vn 0.050089 -0.982522 0.179279
vn 0.997360 0.043615 -0.058062
vn 0.974375 0.222393 -0.033696
vn -0.640263 -0.657859 -0.396592
vn -0.746479 -0.660065 -0.084158
vn -0.997360 0.043615 -0.058062
vn -0.853999 -0.120392 -0.506154
vn -0.845783 0.228600 -0.482072
vn -0.974375 0.222393 -0.033696
vn -0.796917 0.601604 -0.054746
vn -0.707122 0.581141 -0.402808
vn -0.807111 0.126259 0.576742
vn -0.697792 0.538343 0.472517
vn -0.656624 -0.519766 0.546524
vn -0.828583 0.042729 0.558233
s 1
g pCube6
usemtl lambert8SG
f 24/34/1 19/28/2 2/2/3 5/5/4
f 30/41/5 25/35/6 3/3/7 6/6/8
f 23/33/9 44/59/10 45/60/11 8/8/12
f 29/40/13 46/61/14 47/62/15 9/9/16
f 22/32/17 32/44/18 33/45/19 11/11/20
f 28/39/21 34/46/22 35/47/23 12/12/24
f 51/67/25 52/68/26 22/32/17 11/11/20
f 49/64/27 50/66/28 28/39/21 12/12/24
f 20/30/29 21/31/30 14/14/31 17/17/32
f 26/37/33 27/38/34 15/15/35 18/18/36
f 39/53/37 40/54/38 20/30/29 17/17/32
f 37/50/39 38/52/40 26/37/33 18/18/36
f 36/49/41 37/51/39 18/22/36 15/23/35
f 35/48/23 48/63/42 49/65/27 12/24/24
f 16/25/43 41/55/44 42/57/45 13/26/46
f 53/69/47 54/71/48 31/42/49 10/27/50
f 16/16/43 20/30/29 40/54/38 41/56/44
f 13/13/46 21/31/30 20/30/29 16/16/43
f 10/10/50 22/32/17 52/68/26 53/70/47
f 31/43/49 32/44/18 22/32/17 10/10/50
f 43/58/51 44/59/10 23/33/9 7/7/52
f 1/1/53 19/28/2 24/34/1 4/4/54
f 17/17/32 26/37/33 38/52/40 39/53/37
f 14/14/31 27/38/34 26/37/33 17/17/32
f 11/11/20 28/39/21 50/66/28 51/67/25
f 33/45/19 34/46/22 28/39/21 11/11/20
f 45/60/11 46/61/14 29/40/13 8/8/12
f 2/2/3 25/35/6 30/41/5 5/5/4
f 7/7/52 23/33/9 32/44/18 31/43/49
f 33/45/19 32/44/18 23/33/9 8/8/12
f 8/8/12 29/40/13 34/46/22 33/45/19
f 35/47/23 34/46/22 29/40/13 9/9/16
f 47/62/15 48/63/42 35/48/23 9/9/16
f 3/3/7 37/51/39 36/49/41 6/6/8
f 25/36/6 38/52/40 37/50/39 3/21/7
f 39/53/37 38/52/40 25/36/6 2/20/3
f 19/29/2 40/54/38 39/53/37 2/20/3
f 41/56/44 40/54/38 19/29/2 1/19/53
f 42/57/45 41/55/44 1/1/53 4/4/54
f 31/42/49 54/71/48 43/58/51 7/7/52
f 4/4/54 24/34/1 44/59/10 43/58/51
f 45/60/11 44/59/10 24/34/1 5/5/4
f 5/5/4 30/41/5 46/61/14 45/60/11
f 47/62/15 46/61/14 30/41/5 6/6/8
f 6/6/8 36/49/41 48/63/42 47/62/15
f 49/65/27 48/63/42 36/49/41 15/23/35
f 27/38/34 50/66/28 49/64/27 15/15/35
f 51/67/25 50/66/28 27/38/34 14/14/31
f 21/31/30 52/68/26 51/67/25 14/14/31
f 53/70/47 52/68/26 21/31/30 13/13/46
f 13/26/46 42/57/45 54/71/48 53/69/47
f 43/58/51 54/71/48 42/57/45 4/4/54
