# This file uses centimeters as units for non-parametric coordinates.

mtllib lefthand.mtl
g default
v -0.188180 -0.913508 0.125002
v 1.137968 -1.415644 0.534244
v 2.607499 -1.177949 0.652936
v -0.363061 -0.409291 0.469197
v 1.137968 -0.678378 0.877889
v 3.091089 -0.321034 0.671755
v -0.331562 0.119734 0.361508
v 1.656332 0.760808 0.768287
v 2.906237 1.330690 0.515468
v -0.331562 0.119734 -1.387659
v 1.656332 0.760808 -1.794437
v 2.906237 1.300745 -1.819428
v -0.363061 -0.409291 -1.494248
v 1.137968 -0.409291 -1.904039
v 3.762780 0.272765 -1.904039
v -0.188180 -0.913508 -1.151153
v 1.137968 -0.987878 -1.560395
v 2.079635 -0.486836 -1.707038
v -0.656395 0.414866 -0.512640
v 1.656332 0.937754 -0.512547
v 2.906237 1.574435 -0.335882
v 4.023841 0.100540 0.159414
v 2.709653 -1.128748 0.365686
v 1.137968 -0.978385 -0.512547
v -0.015629 -0.890500 -0.512640
v -1.194860 -0.409291 -0.512640
v 1.782777 -1.412263 0.936744
v 2.564767 -1.256763 1.386756
v 3.048357 -0.459645 1.405574
v 1.782777 -0.734792 1.280388
v 3.332330 -0.861868 0.625015
v 3.539295 -0.521940 0.643833
v 3.496565 -0.660552 1.046332
v 3.289599 -0.940681 1.027514
v 4.074314 -0.617662 0.047614
v 2.901051 -1.533789 0.279513
v 2.736836 -1.541975 -1.315485
v 4.109068 -0.617662 -1.724501
vt 0.375000 0.000000
vt 0.500000 0.000000
vt 0.625000 0.000000
vt 0.375000 0.125000
vt 0.500000 0.125000
vt 0.625000 0.125000
vt 0.375000 0.250000
vt 0.500000 0.250000
vt 0.625000 0.250000
vt 0.375000 0.500000
vt 0.500000 0.500000
vt 0.625000 0.500000
vt 0.375000 0.625000
vt 0.500000 0.625000
vt 0.625000 0.625000
vt 0.375000 0.750000
vt 0.500000 0.750000
vt 0.625000 0.750000
vt 0.375000 1.000000
vt 0.500000 1.000000
vt 0.625000 1.000000
vt 0.875000 0.000000
vt 0.875000 0.125000
vt 0.875000 0.250000
vt 0.125000 0.000000
vt 0.125000 0.125000
vt 0.125000 0.250000
vt 0.250048 0.250000
vt 0.375000 0.374952
vt 0.500000 0.374952
vt 0.625000 0.374952
vt 0.749953 0.250000
vt 0.749952 0.125000
vt 0.625000 0.875048
vt 0.749952 0.000000
vt 0.500000 0.875048
vt 0.250048 0.000000
vt 0.375000 0.875048
vt 0.250048 0.125000
vt 0.500000 0.000000
vt 0.625000 0.000000
vt 0.625000 0.125000
vt 0.500000 0.125000
vt 0.625000 0.000000
vt 0.625000 0.125000
vt 0.625000 0.125000
vt 0.625000 0.000000
vt 0.749952 0.125000
vt 0.749952 0.000000
vt 0.875000 0.000000
vt 0.875000 0.125000
vn -0.413225 -0.851264 0.323412
vn -0.201534 -0.963010 0.178876
vn -0.211980 0.010864 0.977214
vn -0.486282 -0.099243 0.868148
vn -0.142697 -0.838980 0.525119
vn 0.035871 -0.667048 0.744151
vn 0.022830 0.674613 0.737818
vn -0.348665 0.556850 0.753890
vn -0.148953 0.559995 0.814996
vn -0.402840 0.673025 0.620288
vn 0.385430 0.299207 0.872880
vn 0.159307 0.579345 0.799363
vn -0.468327 0.883555 -0.000026
vn -0.344868 0.938624 -0.007178
vn -0.253811 0.624713 -0.738454
vn -0.410469 0.701456 -0.582645
vn 0.316761 0.944783 0.083950
vn 0.302496 0.744733 -0.594868
vn -0.132431 -0.105303 -0.985583
vn -0.499647 -0.140588 -0.854744
vn 0.646941 0.304380 -0.699157
vn 0.047600 -0.903477 -0.425984
vn -0.310425 -0.876506 -0.367932
vn -0.029701 -0.716795 -0.696651
vn 0.063043 -0.975625 -0.210194
vn -0.268884 -0.958856 -0.091085
vn -0.097183 -0.957208 0.272596
vn 0.847014 -0.481603 0.225003
vn 0.098888 -0.957069 0.272470
vn 0.014542 -0.914537 -0.404241
vn 0.683651 -0.487074 -0.543488
vn 0.872985 0.419013 0.249649
vn -0.985766 -0.168124 0.000017
vn 0.298716 -0.938021 -0.175743
vn 0.338744 -0.541706 -0.769290
vn 0.583834 0.513772 -0.628631
vn 0.815265 0.161780 0.556031
vn 0.569184 -0.743044 0.352016
s 1
g pCube11
usemtl lambert10SG
f 1/1/1 2/2/2 5/5/3 4/4/4
f 27/40/5 28/41/6 29/42/7 30/43/8
f 4/4/4 5/5/3 8/8/9 7/7/10
f 5/5/3 6/6/11 9/9/12 8/8/9
f 19/29/13 20/30/14 11/11/15 10/10/16
f 20/30/14 21/31/17 12/12/18 11/11/15
f 10/10/16 11/11/15 14/14/19 13/13/20
f 11/11/15 12/12/18 15/15/21 14/14/19
f 13/13/20 14/14/19 17/17/22 16/16/23
f 14/14/19 15/15/21 18/18/24 17/17/22
f 16/16/23 17/17/22 24/36/25 25/38/26
f 17/17/22 18/18/24 23/34/27 24/36/25
f 35/48/28 36/49/29 37/50/30 38/51/31
f 21/32/17 22/33/32 15/23/21 12/24/18
f 16/25/23 25/37/26 26/39/33 13/26/20
f 13/26/20 26/39/33 19/28/13 10/27/16
f 7/7/10 8/8/9 20/30/14 19/29/13
f 8/8/9 9/9/12 21/31/17 20/30/14
f 6/6/11 22/33/32 21/32/17 9/9/12
f 3/3/34 23/35/27 22/33/32 6/6/11
f 24/36/25 23/34/27 3/21/34 2/20/2
f 25/38/26 24/36/25 2/20/2 1/19/1
f 26/39/33 25/37/26 1/1/1 4/4/4
f 19/28/13 26/39/33 4/4/4 7/7/10
f 2/2/2 3/3/34 28/41/6 27/40/5
f 31/44/35 32/45/36 33/46/37 34/47/38
f 6/6/11 5/5/3 30/43/8 29/42/7
f 5/5/3 2/2/2 27/40/5 30/43/8
f 3/3/34 6/6/11 32/45/36 31/44/35
f 6/6/11 29/42/7 33/46/37 32/45/36
f 29/42/7 28/41/6 34/47/38 33/46/37
f 28/41/6 3/3/34 31/44/35 34/47/38
f 22/33/32 23/35/27 36/49/29 35/48/28
f 23/35/27 18/22/24 37/50/30 36/49/29
f 18/22/24 15/23/21 38/51/31 37/50/30
f 15/23/21 22/33/32 35/48/28 38/51/31
