# This file uses centimeters as units for non-parametric coordinates.

mtllib legMomoRight.mtl
g default
v -2.397691 -2.012113 2.023683
v -0.254929 -2.011323 2.708644
v -0.254929 -0.325664 2.687463
v -2.392733 -0.810543 2.011975
v 1.887834 -1.562575 2.023683
v 1.882877 -0.256928 1.767553
v -2.681348 -0.112117 0.461358
v -0.254929 1.011178 0.364548
v -0.254929 0.030514 -2.366308
v -2.226304 -0.772716 -1.454649
v 2.171491 -0.112117 0.449522
v 1.545264 -0.219731 -1.454649
v -0.254929 -1.974465 -2.298105
v -2.264924 -1.985679 -1.388363
v 1.755067 -1.536141 -1.388363
v 2.378872 -1.470732 0.452427
v -2.888728 -1.920270 0.452427
v -0.254929 -1.096167 2.697144
v 1.885143 -0.630396 2.017327
v 2.266284 -0.470023 0.449522
v 1.734101 -0.549222 -1.424350
v -0.254929 -0.989170 -2.335133
v -2.243957 -1.017810 -1.424350
v -2.776140 -0.938612 0.457275
v -2.394999 -1.098985 2.017327
v -0.254929 -2.043563 2.860343
v 1.956904 -1.594863 2.134179
v 1.953988 -0.607755 2.127441
v -0.254929 -1.073357 2.848152
v 2.489010 -1.497495 0.449522
v 2.367005 -0.437736 0.449522
v 1.790313 -0.521698 -1.521263
v 1.813034 -1.566838 -1.483111
v -0.254929 -0.959924 -2.486832
v -0.254929 -2.004488 -2.447577
v -2.300170 -0.990287 -1.521263
v -2.322891 -2.016376 -1.483111
v -2.998866 -1.947033 0.468408
v -2.876862 -0.906325 0.473548
v -2.463844 -1.076344 2.127441
v -2.466761 -2.044401 2.134179
vt 0.375000 0.223955
vt 0.500000 0.223955
vt 0.500000 0.250000
vt 0.375000 0.250000
vt 0.625000 0.223955
vt 0.625000 0.250000
vt 0.375000 0.377303
vt 0.500000 0.377303
vt 0.500000 0.500000
vt 0.375000 0.500000
vt 0.625000 0.377303
vt 0.625000 0.500000
vt 0.500000 0.526045
vt 0.375000 0.526045
vt 0.625000 0.526045
vt 0.752303 0.250000
vt 0.752303 0.223955
vt 0.875000 0.223955
vt 0.875000 0.250000
vt 0.125000 0.223955
vt 0.247697 0.223955
vt 0.247697 0.250000
vt 0.125000 0.250000
vt 0.500000 0.238095
vt 0.625000 0.238095
vt 0.752303 0.238095
vt 0.625000 0.511905
vt 0.875000 0.238095
vt 0.500000 0.511905
vt 0.125000 0.238095
vt 0.375000 0.511905
vt 0.247697 0.238095
vt 0.375000 0.238095
vt 0.500000 0.223955
vt 0.625000 0.223955
vt 0.625000 0.238095
vt 0.500000 0.238095
vt 0.752303 0.223955
vt 0.752303 0.238095
vt 0.875000 0.238095
vt 0.875000 0.223955
vt 0.500000 0.511905
vt 0.625000 0.511905
vt 0.625000 0.526045
vt 0.500000 0.526045
vt 0.375000 0.511905
vt 0.375000 0.526045
vt 0.125000 0.223955
vt 0.247697 0.223955
vt 0.247697 0.238095
vt 0.125000 0.238095
vt 0.375000 0.238095
vt 0.375000 0.223955
vn -0.662648 0.049622 0.747285
vn 0.020586 0.122543 0.992250
vn -0.054517 0.769969 0.635748
vn -0.451688 0.700933 0.551970
vn 0.378531 0.216705 0.899863
vn 0.386671 0.795031 0.467346
vn -0.567937 0.821752 0.046600
vn -0.075376 0.996608 0.033040
vn -0.065723 0.819020 -0.569989
vn -0.523900 0.708329 -0.473074
vn 0.444467 0.894569 0.046850
vn 0.449912 0.768004 -0.455795
vn 0.013698 -0.010392 -0.999852
vn -0.808872 0.043633 -0.586364
vn 0.795039 0.258469 -0.548731
vn 0.950758 0.303204 -0.064243
vn -0.994811 0.092696 -0.041939
vn -0.004552 0.010207 0.999937
vn 0.663308 0.034958 0.747530
vn 0.685635 0.036638 0.727023
vn 0.005679 0.010206 0.999932
vn 0.997089 0.062290 -0.043969
vn 0.996894 0.062284 -0.048206
vn 0.712792 0.010439 -0.701297
vn 0.761247 0.018511 -0.648198
vn 0.014192 -0.032028 -0.999386
vn -0.000761 -0.032037 -0.999486
vn -0.707141 0.010453 -0.706996
vn -0.766518 0.020509 -0.641895
vn -0.996818 0.063598 -0.048050
vn -0.996975 0.063594 -0.044676
vn -0.675177 0.036063 0.736773
vn -0.664815 0.035277 0.746175
vn 0.111488 -0.957759 -0.265080
vn 0.111488 -0.957759 -0.265080
vn 0.111488 -0.957759 -0.265080
vn 0.111488 -0.957759 -0.265080
vn -0.240355 0.965032 -0.104602
vn -0.240355 0.965032 -0.104602
vn -0.240355 0.965032 -0.104602
vn -0.240355 0.965032 -0.104602
vn -0.238506 -0.962283 -0.130869
vn -0.238506 -0.962283 -0.130869
vn -0.238506 -0.962283 -0.130869
vn -0.238506 -0.962283 -0.130869
vn -0.318924 0.947601 0.018426
vn -0.318924 0.947601 0.018426
vn -0.318924 0.947601 0.018426
vn -0.318924 0.947601 0.018426
vn -0.326288 0.943723 0.054059
vn -0.326288 0.943723 0.054059
vn -0.326288 0.943723 0.054059
vn -0.326288 0.943723 0.054059
vn -0.256494 -0.958740 0.122587
vn -0.256494 -0.958740 0.122587
vn -0.256494 -0.958740 0.122587
vn -0.256494 -0.958740 0.122587
vn -0.277893 0.948237 0.153692
vn -0.277893 0.948237 0.153692
vn -0.277893 0.948237 0.153692
vn -0.277893 0.948237 0.153692
vn 0.087180 -0.961719 0.259802
vn 0.087180 -0.961719 0.259802
vn 0.087180 -0.961719 0.259802
vn 0.087180 -0.961719 0.259802
vn 0.080836 0.975528 0.204479
vn 0.080836 0.975528 0.204479
vn 0.080836 0.975528 0.204479
vn 0.080836 0.975528 0.204479
vn 0.104962 -0.970643 0.216413
vn 0.104962 -0.970643 0.216413
vn 0.104962 -0.970643 0.216413
vn 0.104962 -0.970643 0.216413
vn 0.267640 -0.955288 0.125677
vn 0.267640 -0.955288 0.125677
vn 0.267640 -0.955288 0.125677
vn 0.267640 -0.955288 0.125677
vn 0.330801 0.942098 0.054975
vn 0.330801 0.942098 0.054975
vn 0.330801 0.942098 0.054975
vn 0.330801 0.942098 0.054975
vn 0.320366 0.947119 0.018202
vn 0.320366 0.947119 0.018202
vn 0.320366 0.947119 0.018202
vn 0.320366 0.947119 0.018202
vn 0.227497 -0.965286 -0.128330
vn 0.227497 -0.965286 -0.128330
vn 0.227497 -0.965286 -0.128330
vn 0.227497 -0.965286 -0.128330
vn 0.071810 -0.972745 -0.220477
vn 0.071810 -0.972745 -0.220477
vn 0.071810 -0.972745 -0.220477
vn 0.071810 -0.972745 -0.220477
vn 0.049734 0.986102 -0.158524
vn 0.049734 0.986102 -0.158524
vn 0.049734 0.986102 -0.158524
vn 0.049734 0.986102 -0.158524
s 1
g polySurface14 pasted__pasted__pCube7 pasted__group13 group19
usemtl lambert8SG
f 25/33/1 18/24/2 3/3/3 4/4/4
f 18/24/2 19/25/5 6/6/6 3/3/3
f 7/7/7 8/8/8 9/9/9 10/10/10
f 8/8/8 11/11/11 12/12/12 9/9/9
f 10/10/10 9/9/9 22/29/13 23/31/14
f 9/9/9 12/12/12 21/27/15 22/29/13
f 11/16/11 20/26/16 21/28/15 12/19/12
f 23/30/14 24/32/17 7/22/7 10/23/10
f 4/4/4 3/3/3 8/8/8 7/7/7
f 3/3/3 6/6/6 11/11/11 8/8/8
f 19/25/5 20/26/16 11/16/11 6/6/6
f 7/22/7 24/32/17 25/33/1 4/4/4
s 2
usemtl lambert7SG
f 26/34/18 27/35/19 28/36/20 29/37/21
f 27/35/19 30/38/22 31/39/23 28/36/20
f 32/40/24 31/39/23 30/38/22 33/41/25
f 34/42/26 32/43/24 33/44/25 35/45/27
f 36/46/28 34/42/26 35/45/27 37/47/29
f 37/48/29 38/49/30 39/50/31 36/51/28
f 40/52/32 39/50/31 38/49/30 41/53/33
f 41/53/33 26/34/18 29/37/21 40/52/32
s off
f 2/2/34 5/5/35 27/35/36 26/34/37
f 19/25/38 18/24/39 29/37/40 28/36/41
f 5/5/42 16/17/43 30/38/44 27/35/45
f 20/26/46 19/25/47 28/36/48 31/39/49
f 21/28/50 20/26/51 31/39/52 32/40/53
f 16/17/54 15/18/55 33/41/56 30/38/57
f 22/29/58 21/27/59 32/43/60 34/42/61
f 15/15/62 13/13/63 35/45/64 33/44/65
f 23/31/66 22/29/67 34/42/68 36/46/69
f 13/13/70 14/14/71 37/47/72 35/45/73
f 14/20/74 17/21/75 38/49/76 37/48/77
f 24/32/78 23/30/79 36/51/80 39/50/81
f 25/33/82 24/32/83 39/50/84 40/52/85
f 17/21/86 1/1/87 41/53/88 38/49/89
f 1/1/90 2/2/91 26/34/92 41/53/93
f 18/24/94 25/33/95 40/52/96 29/37/97
g default
v -1.731761 -12.094332 1.394963
v -0.254929 -12.388938 1.817847
v 1.221905 -12.094332 1.394963
v -2.127208 -6.340239 1.814523
v -0.254929 -6.340239 2.290599
v 1.617352 -6.340239 1.814523
v -2.127208 -6.340239 -0.996707
v -0.254929 -6.340239 -1.663215
v 1.617352 -6.340239 -0.996707
v -1.731761 -11.948369 -0.996707
v -0.254929 -12.388938 -1.663215
v 1.221905 -11.948369 -0.996707
v 2.069017 -6.340239 0.383014
v 1.460271 -12.388938 0.383014
v -0.254929 -12.982626 0.277273
v -1.970127 -12.388938 0.383014
v -2.578874 -6.340239 0.383014
v -2.187293 -1.404712 1.814523
v -0.254929 -1.649691 2.422704
v 1.677436 -1.404712 1.814523
v 2.080165 -1.283183 0.383014
v 1.538216 -1.483316 -1.326961
v -0.254929 -1.362948 -2.168853
v -2.048072 -1.483316 -1.326961
v -2.590021 -1.283183 0.383014
vt 0.375000 0.000000
vt 0.500000 0.000000
vt 0.500000 0.125000
vt 0.375000 0.125000
vt 0.625000 0.000000
vt 0.625000 0.125000
vt 0.375000 0.223955
vt 0.500000 0.223955
vt 0.625000 0.223955
vt 0.500000 0.526045
vt 0.375000 0.526045
vt 0.625000 0.526045
vt 0.375000 0.625000
vt 0.500000 0.625000
vt 0.500000 0.750000
vt 0.375000 0.750000
vt 0.625000 0.625000
vt 0.625000 0.750000
vt 0.500000 0.872697
vt 0.375000 0.872697
vt 0.625000 0.872697
vt 0.752303 0.125000
vt 0.752303 0.000000
vt 0.875000 0.000000
vt 0.875000 0.125000
vt 0.752303 0.223955
vt 0.875000 0.223955
vt 0.125000 0.000000
vt 0.247697 0.000000
vt 0.247697 0.125000
vt 0.125000 0.125000
vt 0.125000 0.223955
vt 0.247697 0.223955
vt 0.625000 1.000000
vt 0.500000 1.000000
vt 0.375000 1.000000
vn -0.629767 -0.224491 0.743638
vn 0.000000 -0.227004 0.973894
vn 0.000000 -0.050120 0.998743
vn -0.639417 -0.053231 0.767016
vn 0.629766 -0.224491 0.743638
vn 0.639416 -0.053231 0.767016
vn -0.747817 -0.047642 -0.662193
vn -0.000000 -0.047756 -0.998859
vn 0.000000 -0.197812 -0.980240
vn -0.673197 -0.209664 -0.709117
vn 0.747817 -0.047642 -0.662193
vn 0.673197 -0.209664 -0.709117
vn 0.000000 -0.999132 -0.041659
vn -0.951070 -0.308963 -0.002667
vn 0.951070 -0.308963 -0.002667
vn 0.998831 -0.046900 -0.011718
vn -0.998831 -0.046900 -0.011718
vn 0.000000 -0.015507 0.999880
vn -0.668691 -0.012779 0.743431
vn 0.668691 -0.012779 0.743431
vn 0.999748 -0.005432 -0.021785
vn 0.652685 -0.052887 -0.755781
vn 0.000000 -0.081437 -0.996678
vn -0.652686 -0.052887 -0.755781
vn -0.999748 -0.005432 -0.021785
s 1
g pasted__pasted__pCube7 pasted__group13 group19 polySurface13
usemtl lambert13SG
f 42/54/98 43/55/99 46/56/100 45/57/101
f 43/55/99 44/58/102 47/59/103 46/56/100
f 48/66/104 49/67/105 52/68/106 51/69/107
f 49/67/105 50/70/108 53/71/109 52/68/106
f 51/69/107 52/68/106 56/72/110 57/73/111
f 52/68/106 53/71/109 55/74/112 56/72/110
f 54/75/113 55/76/112 53/77/109 50/78/108
f 51/81/107 57/82/111 58/83/114 48/84/104
f 44/58/102 55/76/112 54/75/113 47/59/103
f 56/72/110 55/74/112 44/87/102 43/88/99
f 57/73/111 56/72/110 43/88/99 42/89/98
f 58/83/114 57/82/111 42/54/98 45/57/101
usemtl blinn1SG
f 45/57/101 46/56/100 60/61/115 59/60/116
f 46/56/100 47/59/103 61/62/117 60/61/115
f 47/59/103 54/75/113 62/79/118 61/62/117
f 63/80/119 62/79/118 54/75/113 50/78/108
f 64/63/120 63/65/119 50/70/108 49/67/105
f 65/64/121 64/63/120 49/67/105 48/66/104
f 48/84/104 58/83/114 66/86/122 65/85/121
f 59/60/116 66/86/122 58/83/114 45/57/101
