# This file uses centimeters as units for non-parametric coordinates.

mtllib upArmLeft.mtl
g default
v 0.968541 -1.235351 0.619989
v 5.431073 -1.071742 0.517908
v 5.433923 0.009198 0.948468
v 0.411035 0.009198 1.067553
v 5.431073 1.090141 0.517907
v 0.968541 1.253751 0.619989
v 0.407165 1.451514 -0.400255
v 5.448839 1.440748 -0.366349
v 5.431073 1.090141 -1.327459
v 0.968541 1.253751 -1.420499
v 5.433923 0.009198 -1.758020
v 0.411035 0.009198 -1.868064
v 5.431073 -1.071742 -1.327459
v 0.968541 -1.235351 -1.420500
v 5.416304 -1.422352 -0.366349
v 0.407165 -1.433123 -0.400255
v -1.099569 0.009198 -0.400255
v 3.611972 -1.239895 0.622237
v 3.626042 -1.580210 -0.400255
v 3.611972 -1.239895 -1.422747
v 3.641233 0.009198 -1.905121
v 3.663519 1.258296 -1.422747
v 3.651843 1.598601 -0.400255
v 3.663519 1.258296 0.622236
v 3.641233 0.009198 1.104610
v 3.826564 0.009198 1.543223
v 3.800794 -1.474158 0.894525
v 5.162853 -1.476643 0.895914
v 5.165758 0.009198 1.566130
v 3.846192 1.492560 0.894524
v 5.162853 1.495044 0.895914
v 3.846192 1.492560 -1.672123
v 3.835908 1.896688 -0.559205
v 5.180963 1.976982 -0.559205
v 5.162853 1.495044 -1.673513
v 3.826564 0.009198 -2.320821
v 5.165758 0.009198 -2.343728
v 3.800794 -1.474158 -1.672124
v 5.162853 -1.476643 -1.673513
v 3.813185 -1.878297 -0.559205
v 5.147796 -1.958587 -0.559205
vt 0.375000 0.000000
vt 0.500000 0.000000
vt 0.500000 0.125000
vt 0.375000 0.125000
vt 0.500000 0.250000
vt 0.375000 0.250000
vt 0.375000 0.371798
vt 0.500000 0.371798
vt 0.500000 0.500000
vt 0.375000 0.500000
vt 0.500000 0.625000
vt 0.375000 0.625000
vt 0.500000 0.750000
vt 0.375000 0.750000
vt 0.500000 0.878202
vt 0.375000 0.878202
vt 0.125000 0.000000
vt 0.253202 0.000000
vt 0.253202 0.125000
vt 0.125000 0.125000
vt 0.253202 0.250000
vt 0.125000 0.250000
vt 0.500000 1.000000
vt 0.375000 1.000000
vt 0.460636 0.000000
vt 0.460636 1.000000
vt 0.460636 0.878202
vt 0.460636 0.750000
vt 0.460636 0.625000
vt 0.460636 0.500000
vt 0.460636 0.371798
vt 0.460636 0.250000
vt 0.460636 0.125000
vt 0.460636 0.125000
vt 0.460636 0.000000
vt 0.500000 0.000000
vt 0.500000 0.125000
vt 0.460636 0.250000
vt 0.500000 0.250000
vt 0.460636 0.500000
vt 0.460636 0.371798
vt 0.500000 0.371798
vt 0.500000 0.500000
vt 0.460636 0.625000
vt 0.500000 0.625000
vt 0.460636 0.750000
vt 0.500000 0.750000
vt 0.460636 0.878202
vt 0.500000 0.878202
vt 0.460636 1.000000
vt 0.500000 1.000000
vn -0.196919 -0.001718 0.980418
vn -0.172414 -0.724372 0.667502
vn 0.203879 -0.723513 0.659516
vn 0.241188 -0.003164 0.970473
vn -0.173824 0.725654 0.665742
vn 0.205694 0.722771 0.659766
vn -0.184430 0.667279 -0.721612
vn -0.170317 0.985334 -0.010398
vn 0.208972 0.977884 -0.008553
vn 0.228787 0.664572 -0.711337
vn -0.186669 -0.001910 -0.982421
vn 0.228373 -0.003174 -0.973568
vn -0.182884 -0.666253 -0.722953
vn 0.226738 -0.666271 -0.710403
vn -0.167220 -0.985871 -0.009778
vn 0.204919 -0.978752 -0.007247
vn -0.229085 -0.687499 -0.689104
vn -0.357886 -0.933765 0.000000
vn -1.000000 -0.000000 0.000000
vn -0.291145 0.001185 -0.956678
vn -0.355214 0.934785 -0.000000
vn -0.227428 0.688295 -0.688859
vn -0.229085 -0.687499 0.689104
vn -0.291145 0.001185 0.956678
vn -0.227428 0.688294 0.688859
vn -0.159332 -0.987209 0.005702
vn -0.180283 -0.688354 0.702614
vn -0.177582 -0.685339 -0.706240
vn -0.162905 0.004988 -0.986629
vn -0.177021 0.687480 -0.704298
vn -0.157215 0.987546 0.006025
vn -0.179623 0.690766 0.700413
vn -0.172079 0.005148 0.985070
vn 0.901344 -0.302025 0.310420
vn 0.909199 -0.000000 0.416361
vn 0.899221 0.299274 0.319117
vn 0.894768 0.445581 0.029101
vn 0.901212 0.281472 -0.329530
vn 0.899966 -0.000000 -0.435960
vn 0.902547 -0.287593 -0.320468
vn 0.891341 -0.452628 0.025289
s 1
g polySurface10 polySurface5 pCube8
usemtl lambert7SG
f 26/34/1 27/35/2 28/36/3 29/37/4
f 30/38/5 26/34/1 29/37/4 31/39/6
f 32/40/7 33/41/8 34/42/9 35/43/10
f 36/44/11 32/40/7 35/43/10 37/45/12
f 38/46/13 36/44/11 37/45/12 39/47/14
f 40/48/15 38/46/13 39/47/14 41/49/16
usemtl lambert6SG
f 14/17/17 16/18/18 17/19/19 12/20/20
f 12/20/20 17/19/19 7/21/21 10/22/22
usemtl lambert7SG
f 33/41/8 30/38/5 31/39/6 34/42/9
f 27/50/2 40/48/15 41/49/16 28/51/3
usemtl lambert6SG
f 17/19/19 16/18/18 1/1/23 4/4/24
f 7/21/21 17/19/19 4/4/24 6/6/25
f 16/16/18 19/27/26 18/26/27 1/24/23
f 14/14/17 20/28/28 19/27/26 16/16/18
f 12/12/20 21/29/29 20/28/28 14/14/17
f 10/10/22 22/30/30 21/29/29 12/12/20
f 7/7/21 23/31/31 22/30/30 10/10/22
f 6/6/25 24/32/32 23/31/31 7/7/21
f 4/4/24 25/33/33 24/32/32 6/6/25
f 1/1/23 18/25/27 25/33/33 4/4/24
usemtl lambert7SG
f 25/33/33 18/25/27 27/35/2 26/34/1
f 2/2/34 3/3/35 29/37/4 28/36/3
f 24/32/32 25/33/33 26/34/1 30/38/5
f 3/3/35 5/5/36 31/39/6 29/37/4
f 22/30/30 23/31/31 33/41/8 32/40/7
f 8/8/37 9/9/38 35/43/10 34/42/9
f 21/29/29 22/30/30 32/40/7 36/44/11
f 9/9/38 11/11/39 37/45/12 35/43/10
f 20/28/28 21/29/29 36/44/11 38/46/13
f 11/11/39 13/13/40 39/47/14 37/45/12
f 19/27/26 20/28/28 38/46/13 40/48/15
f 13/13/40 15/15/41 41/49/16 39/47/14
f 23/31/31 24/32/32 30/38/5 33/41/8
f 5/5/36 8/8/37 34/42/9 31/39/6
f 18/26/27 19/27/26 40/48/15 27/50/2
f 15/15/41 2/23/34 28/51/3 41/49/16
g default
v 4.853470 -1.115079 0.322547
v 8.492184 -0.815305 0.322547
v 4.853470 -0.057084 0.817510
v 9.274266 -0.057084 0.472411
v 4.853470 1.000916 0.322547
v 8.492184 0.701151 0.322547
v 4.853470 0.996805 -1.363214
v 8.629403 0.674313 -1.363214
v 4.853470 -0.057084 -1.763250
v 9.151186 -0.057084 -1.544460
v 4.853470 -1.110963 -1.363214
v 8.629403 -0.788476 -1.363214
v 4.420884 1.311650 -0.520013
v 9.092362 0.961260 -0.520013
v 9.987243 -0.057084 -0.520012
v 9.092362 -1.075414 -0.520012
v 4.420884 -1.425813 -0.520012
vt 0.500000 0.000000
vt 0.500000 0.125000
vt 0.625000 0.000000
vt 0.625000 0.125000
vt 0.500000 0.250000
vt 0.625000 0.250000
vt 0.500000 0.371798
vt 0.500000 0.500000
vt 0.625000 0.371798
vt 0.625000 0.500000
vt 0.500000 0.625000
vt 0.625000 0.625000
vt 0.500000 0.750000
vt 0.625000 0.750000
vt 0.500000 0.878202
vt 0.625000 0.878202
vt 0.746798 0.125000
vt 0.746798 0.000000
vt 0.875000 0.000000
vt 0.875000 0.125000
vt 0.746798 0.250000
vt 0.875000 0.250000
vt 0.625000 1.000000
vt 0.500000 1.000000
vn 0.071448 -0.759522 0.646546
vn 0.160835 -0.677837 0.717405
vn 0.245942 0.000001 0.969285
vn 0.056844 0.000000 0.998383
vn 0.160835 0.677835 0.717407
vn 0.071446 0.759519 0.646550
vn 0.078703 0.996859 -0.008787
vn 0.229014 0.973389 -0.008214
vn 0.165121 0.663754 -0.729497
vn 0.066077 0.754761 -0.652663
vn 0.221780 0.000000 -0.975097
vn 0.040545 0.000000 -0.999178
vn 0.165120 -0.663758 -0.729494
vn 0.066077 -0.754763 -0.652661
vn 0.229013 -0.973389 -0.008213
vn 0.078705 -0.996859 -0.008786
vn 0.999870 0.000000 0.016135
s 1
g polySurface5 pCube8 polySurface9
usemtl blinn1SG
f 42/52/42 43/54/43 45/55/44 44/53/45
f 44/53/45 45/55/44 47/57/46 46/56/47
f 54/58/48 55/60/49 49/61/50 48/59/51
f 48/59/51 49/61/50 51/63/52 50/62/53
f 50/62/53 51/63/52 53/65/54 52/64/55
f 52/64/55 53/65/54 57/67/56 58/66/57
f 56/68/58 57/69/56 53/70/54 51/71/52
f 55/72/49 56/68/58 51/71/52 49/73/50
f 46/56/47 47/57/46 55/60/49 54/58/48
f 45/55/44 56/68/58 55/72/49 47/57/46
f 43/54/43 57/69/56 56/68/58 45/55/44
f 58/66/57 57/67/56 43/74/43 42/75/42
