# This file uses centimeters as units for non-parametric coordinates.

mtllib body.mtl
g default
v -1.274125 12.979150 1.309090
v 0.000000 12.588767 1.924232
v 1.274125 12.979150 1.309090
v -1.274125 14.948478 0.945780
v 0.000000 14.948478 1.877437
v 1.274125 14.948478 0.945780
v -1.051875 16.851787 0.945780
v 0.000000 17.179401 1.560922
v 1.051875 16.851787 0.945780
v -1.274125 16.851787 -0.891661
v 0.000000 16.851787 -1.222590
v 1.274125 16.851787 -0.891661
v -1.274125 14.948478 -1.271542
v 0.000000 14.948478 -1.734238
v 1.274125 14.948478 -1.271542
v -1.274125 13.045169 -1.602471
v 0.000000 12.926614 -1.734238
v 1.274125 13.045169 -1.602471
v -1.274125 17.096168 -0.064173
v 0.000000 17.478181 0.264457
v 1.274125 17.096168 -0.064173
v 1.681092 14.948478 -0.241109
v 2.637938 12.381052 -0.047016
v 0.000000 12.018705 0.281614
v -2.637938 12.381052 -0.047016
v -1.681092 14.948478 -0.241109
vt 0.375000 0.000000
vt 0.500000 0.000000
vt 0.625000 0.000000
vt 0.375000 0.125000
vt 0.500000 0.125000
vt 0.625000 0.125000
vt 0.375000 0.250000
vt 0.500000 0.250000
vt 0.625000 0.250000
vt 0.375000 0.500000
vt 0.500000 0.500000
vt 0.625000 0.500000
vt 0.375000 0.625000
vt 0.500000 0.625000
vt 0.625000 0.625000
vt 0.375000 0.750000
vt 0.500000 0.750000
vt 0.625000 0.750000
vt 0.375000 1.000000
vt 0.500000 1.000000
vt 0.625000 1.000000
vt 0.875000 0.000000
vt 0.875000 0.125000
vt 0.875000 0.250000
vt 0.125000 0.000000
vt 0.125000 0.125000
vt 0.125000 0.250000
vt 0.258558 0.250000
vt 0.375000 0.366441
vt 0.500000 0.366441
vt 0.625000 0.366441
vt 0.741441 0.250000
vt 0.741441 0.125000
vt 0.625000 0.883559
vt 0.741441 0.000000
vt 0.500000 0.883559
vt 0.258558 0.000000
vt 0.375000 0.883559
vt 0.258558 0.125000
vn -0.613783 -0.310135 0.726008
vn -0.000000 -0.448682 0.893692
vn 0.000000 0.102322 0.994751
vn -0.747817 0.154785 0.645609
vn 0.613783 -0.310135 0.726008
vn 0.747817 0.154785 0.645609
vn 0.000000 0.414689 0.909963
vn -0.728773 0.357192 0.584212
vn 0.728773 0.357192 0.584212
vn -0.809100 0.587564 -0.011200
vn 0.000000 0.999839 -0.017926
vn 0.000000 0.519449 -0.854502
vn -0.613846 0.464973 -0.637960
vn 0.809100 0.587564 -0.011200
vn 0.613846 0.464973 -0.637960
vn 0.000000 0.153112 -0.988209
vn -0.633297 0.181803 -0.752251
vn 0.633297 0.181803 -0.752251
vn 0.000000 -0.620142 -0.784490
vn -0.441191 -0.477600 -0.759769
vn 0.441191 -0.477600 -0.759769
vn -0.000000 -0.999955 -0.009491
vn -0.875276 -0.480888 -0.051358
vn 0.875276 -0.480888 -0.051358
vn 0.977781 0.209586 -0.004251
vn -0.977781 0.209586 -0.004251
s 1
g pCube9
usemtl blinn1SG
f 1/1/1 2/2/2 5/5/3 4/4/4
f 2/2/2 3/3/5 6/6/6 5/5/3
f 4/4/4 5/5/3 8/8/7 7/7/8
f 5/5/3 6/6/6 9/9/9 8/8/7
f 19/29/10 20/30/11 11/11/12 10/10/13
f 20/30/11 21/31/14 12/12/15 11/11/12
f 10/10/13 11/11/12 14/14/16 13/13/17
f 11/11/12 12/12/15 15/15/18 14/14/16
f 13/13/17 14/14/16 17/17/19 16/16/20
f 14/14/16 15/15/18 18/18/21 17/17/19
f 16/16/20 17/17/19 24/36/22 25/38/23
f 17/17/19 18/18/21 23/34/24 24/36/22
f 22/33/25 23/35/24 18/22/21 15/23/18
f 21/32/14 22/33/25 15/23/18 12/24/15
f 16/25/20 25/37/23 26/39/26 13/26/17
f 13/26/17 26/39/26 19/28/10 10/27/13
f 7/7/8 8/8/7 20/30/11 19/29/10
f 8/8/7 9/9/9 21/31/14 20/30/11
f 6/6/6 22/33/25 21/32/14 9/9/9
f 3/3/5 23/35/24 22/33/25 6/6/6
f 24/36/22 23/34/24 3/21/5 2/20/2
f 25/38/23 24/36/22 2/20/2 1/19/1
f 26/39/26 25/37/23 1/1/1 4/4/4
f 19/28/10 26/39/26 4/4/4 7/7/8
g default
v -4.037545 2.444008 1.532070
v 0.000000 0.424514 2.205404
v 4.037545 2.444008 1.532070
v -4.261777 9.223783 1.579517
v 0.000000 9.223783 2.659681
v 4.261777 9.223783 1.579517
v -4.321333 13.146789 1.219957
v 0.000000 12.792687 2.040892
v 4.321333 13.146789 1.219957
v -4.648839 13.620816 -1.765998
v 0.000000 13.649290 -2.102078
v 4.648839 13.620816 -1.765998
v -4.472758 9.223783 -1.646767
v 0.000000 9.223783 -2.410694
v 4.472758 9.223783 -1.646767
v -4.262451 2.444008 -1.298842
v 0.000000 0.518682 -2.208350
v 4.262451 2.444008 -1.298842
v 2.828225 0.596300 2.333325
v 2.523902 1.251007 -2.208350
v 2.800432 9.223783 -2.410694
v 2.800432 13.857594 -1.867408
v 2.800432 13.245141 1.376267
v 2.800432 9.223783 2.757567
v -2.828225 0.596300 2.333326
v -2.523902 1.251007 -2.208350
v -2.800432 9.223783 -2.410694
v -2.800432 13.857594 -1.867408
v -2.800432 13.245141 1.376267
v -2.800432 9.223783 2.757567
v -4.817488 13.894973 -0.355464
v -2.800432 13.838993 -0.277761
v 0.000000 13.483840 -0.081737
v 2.800432 13.838993 -0.277761
v 4.817488 13.894973 -0.355464
v 4.925635 9.223783 -0.021270
v 4.405318 2.444008 -0.148803
v 2.523902 0.029931 -0.162642
v 0.000000 -0.267640 -0.162642
v -2.523902 0.029931 -0.162642
v -4.405318 2.444008 -0.148803
v -4.925635 9.223783 -0.021270
v -3.582040 4.852206 1.539379
v -2.220272 4.852206 2.179740
v 0.000000 4.852206 2.457811
v 2.220272 4.852206 2.179740
v 3.582040 4.852206 1.539379
v 4.095710 4.852206 -0.067528
v 4.048314 4.852206 -1.433940
v 2.428358 4.852206 -2.610947
v 0.000000 4.852206 -2.610947
v -2.428358 4.852206 -2.610947
v -4.048314 4.852206 -1.433940
v -4.095710 4.852206 -0.067528
v -4.766062 10.310455 1.405894
v -2.800432 10.393552 2.587128
v 0.000000 10.802458 2.650918
v 2.800432 10.393552 2.587128
v 4.766062 10.310455 1.405894
v 5.276531 9.861390 -0.021270
v 5.096692 10.456428 -1.917649
v 2.820727 10.899988 -2.199203
v 0.000000 10.882141 -2.290556
v -2.820727 10.899988 -2.199203
v -5.096692 10.456428 -1.917649
v -5.276531 9.861390 -0.021270
v 6.823980 13.422573 -0.464914
v 7.021578 11.035019 -0.295267
v 6.651750 11.347158 -1.637059
v 6.467937 13.216182 -1.553077
v 6.151860 11.367434 0.946545
v 5.992329 12.938579 0.674159
v -6.651750 11.347158 -1.637059
v -7.021578 11.035019 -0.295267
v -6.823980 13.422573 -0.464914
v -6.467937 13.216182 -1.553077
v -6.151860 11.367434 0.946544
v -5.992329 12.938579 0.674159
v -4.252454 6.954750 -1.536300
v -2.607310 6.954750 -2.514634
v 0.000000 6.954750 -2.514634
v 2.607310 6.954750 -2.514634
v 4.252454 6.954750 -1.536300
v 4.494869 6.954750 -0.045280
v 4.016970 6.954750 1.558684
v 2.607310 6.954750 2.179120
v 0.000000 6.954750 2.568891
v -2.607310 6.954750 2.179120
v -4.016970 6.954750 1.558684
v -4.494869 6.954750 -0.045280
vt 0.375000 0.000000
vt 0.500000 0.000000
vt 0.625000 0.000000
vt 0.375000 0.125000
vt 0.500000 0.125000
vt 0.625000 0.125000
vt 0.375000 0.250000
vt 0.500000 0.250000
vt 0.625000 0.250000
vt 0.375000 0.500000
vt 0.500000 0.500000
vt 0.625000 0.500000
vt 0.375000 0.625000
vt 0.500000 0.625000
vt 0.625000 0.625000
vt 0.375000 0.750000
vt 0.500000 0.750000
vt 0.625000 0.750000
vt 0.375000 1.000000
vt 0.500000 1.000000
vt 0.625000 1.000000
vt 0.875000 0.000000
vt 0.875000 0.125000
vt 0.875000 0.250000
vt 0.125000 0.000000
vt 0.125000 0.125000
vt 0.125000 0.250000
vt 0.566433 0.000000
vt 0.566433 1.000000
vt 0.566433 0.750000
vt 0.566433 0.625000
vt 0.566433 0.500000
vt 0.566433 0.250000
vt 0.566433 0.125000
vt 0.433567 0.000000
vt 0.433567 1.000000
vt 0.433567 0.750000
vt 0.433567 0.625000
vt 0.433567 0.500000
vt 0.433567 0.250000
vt 0.433567 0.125000
vt 0.245762 0.250000
vt 0.375000 0.379238
vt 0.433567 0.379238
vt 0.500000 0.379238
vt 0.566433 0.379238
vt 0.625000 0.379238
vt 0.754238 0.250000
vt 0.754238 0.125000
vt 0.625000 0.870762
vt 0.754238 0.000000
vt 0.566433 0.870762
vt 0.500000 0.870762
vt 0.433567 0.870762
vt 0.245762 0.000000
vt 0.375000 0.870762
vt 0.245762 0.125000
vt 0.375000 0.064222
vt 0.433567 0.064222
vt 0.500000 0.064222
vt 0.566433 0.064222
vt 0.625000 0.064222
vt 0.754238 0.064222
vt 0.625000 0.685778
vt 0.875000 0.064222
vt 0.566433 0.685778
vt 0.500000 0.685778
vt 0.433567 0.685778
vt 0.125000 0.064222
vt 0.375000 0.685778
vt 0.245762 0.064222
vt 0.375000 0.173660
vt 0.433567 0.173660
vt 0.500000 0.173660
vt 0.566433 0.173660
vt 0.625000 0.173660
vt 0.754238 0.173660
vt 0.625000 0.576340
vt 0.875000 0.173660
vt 0.566433 0.576340
vt 0.500000 0.576340
vt 0.433567 0.576340
vt 0.125000 0.173660
vt 0.375000 0.576340
vt 0.245762 0.173660
vt 0.754238 0.173660
vt 0.875000 0.173660
vt 0.875000 0.250000
vt 0.754238 0.250000
vt 0.125000 0.173660
vt 0.245762 0.173660
vt 0.245762 0.250000
vt 0.125000 0.250000
vt 0.625000 0.173660
vt 0.625000 0.250000
vt 0.375000 0.173660
vt 0.375000 0.250000
vt 0.125000 0.093454
vt 0.375000 0.656546
vt 0.433567 0.656546
vt 0.500000 0.656546
vt 0.566433 0.656546
vt 0.625000 0.656546
vt 0.875000 0.093454
vt 0.754238 0.093454
vt 0.625000 0.093454
vt 0.566433 0.093454
vt 0.500000 0.093454
vt 0.433567 0.093454
vt 0.375000 0.093454
vt 0.245762 0.093454
vn 0.000000 -0.099902 0.994997
vn -0.259091 -0.114171 0.959081
vn -0.186410 -0.004387 0.982462
vn 0.000000 -0.018850 0.999822
vn 0.766318 -0.157918 0.622751
vn 0.259091 -0.114171 0.959081
vn 0.186410 -0.004387 0.982462
vn 0.736345 0.009390 0.676542
vn -0.113102 0.683142 0.721474
vn -0.216174 0.211622 0.953145
vn 0.000000 0.269429 0.963020
vn 0.000000 0.573918 0.818913
vn 0.113102 0.683142 0.721474
vn 0.216174 0.211622 0.953145
vn 0.523210 -0.030345 0.851663
vn 0.272521 0.505769 0.818492
vn -0.034941 0.590148 -0.806538
vn 0.045578 0.982936 0.178213
vn 0.000000 0.977778 0.209644
vn 0.000000 0.530712 -0.847552
vn 0.034941 0.590148 -0.806538
vn -0.045578 0.982936 0.178213
vn 0.143891 0.975694 0.165277
vn 0.142881 0.463221 -0.874650
vn 0.000000 0.093747 -0.995596
vn -0.085880 0.071722 -0.993721
vn 0.330307 -0.201156 -0.922190
vn 0.085880 0.071722 -0.993721
vn -0.000000 -0.049782 -0.998760
vn -0.219418 -0.050858 -0.974304
vn -0.222796 0.006624 -0.974843
vn 0.000000 0.045760 -0.998952
vn 0.780280 -0.044229 -0.623865
vn 0.219418 -0.050858 -0.974304
vn 0.222796 0.006624 -0.974843
vn 0.788962 -0.099269 -0.606371
vn 0.000000 -0.997213 -0.074603
vn -0.429434 -0.900032 -0.074360
vn -0.272255 -0.382129 -0.883094
vn -0.000000 -0.523264 -0.852170
vn 0.945012 -0.327004 0.004585
vn 0.429434 -0.900032 -0.074360
vn 0.272255 -0.382129 -0.883094
vn 0.781475 -0.272365 -0.561350
vn 0.983184 -0.159094 0.089652
vn 0.992774 -0.012689 0.119330
vn 0.750153 0.644848 0.146432
vn 0.881501 -0.461300 0.100785
vn 0.549781 -0.254829 -0.795489
vn 0.488392 0.395933 -0.777631
vn -0.780280 -0.044229 -0.623865
vn -0.992774 -0.012689 0.119330
vn -0.983184 -0.159094 0.089652
vn -0.788962 -0.099269 -0.606371
vn -0.549781 -0.254828 -0.795489
vn -0.881501 -0.461300 0.100785
vn -0.750153 0.644847 0.146432
vn -0.488392 0.395933 -0.777631
vn -0.781475 -0.272365 -0.561350
vn -0.945012 -0.327004 0.004585
vn -0.142881 0.463221 -0.874650
vn -0.330307 -0.201156 -0.922190
vn -0.143891 0.975694 0.165277
vn -0.523210 -0.030345 0.851663
vn -0.272521 0.505769 0.818492
vn -0.736345 0.009390 0.676541
vn -0.766318 -0.157918 0.622751
vn 0.558540 -0.123180 0.820280
vn 0.489556 0.434036 0.756272
vn 0.297380 -0.458051 0.837708
vn 0.824051 -0.184174 0.535742
vn 0.000000 -0.503856 0.863788
vn -0.297380 -0.458051 0.837708
vn -0.824051 -0.184174 0.535742
vn -0.558540 -0.123180 0.820280
vn -0.489556 0.434036 0.756272
vn -0.741928 -0.147316 0.654095
vn -0.218540 -0.078893 0.972634
vn 0.000000 -0.066885 0.997761
vn 0.218540 -0.078893 0.972634
vn 0.741928 -0.147316 0.654095
vn 0.966112 -0.249555 0.065952
vn 0.734376 -0.670244 0.107075
vn 0.696499 -0.171259 -0.696821
vn 0.162990 0.019158 -0.986442
vn 0.000000 0.068832 -0.997628
vn -0.162990 0.019158 -0.986442
vn -0.696499 -0.171259 -0.696821
vn -0.966112 -0.249555 0.065952
vn -0.734376 -0.670244 0.107075
s 1
g pCube5
usemtl blinn1SG
f 113/147/27 114/148/28 70/98/29 71/99/30
f 111/145/31 112/146/32 72/100/33 73/101/34
f 55/79/35 82/112/36 83/113/37 34/47/38
f 49/72/39 84/114/40 85/115/41 35/48/42
f 54/78/43 58/83/44 59/84/45 37/50/46
f 48/71/47 60/85/48 61/86/49 38/51/50
f 89/120/51 90/121/52 54/78/43 37/50/46
f 87/117/53 88/119/54 48/71/47 38/51/50
f 77/106/55 78/107/56 106/139/57 107/140/58
f 75/103/59 76/105/60 108/141/61 109/142/62
f 65/92/63 66/93/64 52/76/65 43/56/66
f 63/89/67 64/91/68 46/69/69 44/57/70
f 109/143/62 110/144/71 74/102/72 75/104/59
f 93/128/73 94/125/74 95/126/75 96/127/76
f 79/108/77 80/110/78 116/150/79 105/137/80
f 99/129/81 100/130/82 101/131/83 102/132/84
f 43/56/66 46/69/69 64/91/68 65/92/63
f 107/140/58 108/141/61 76/105/60 77/106/55
f 37/50/46 48/71/47 88/119/54 89/120/51
f 59/84/45 60/85/48 48/71/47 37/50/46
f 83/113/37 84/114/40 49/72/39 34/47/38
f 71/99/30 72/100/33 112/146/32 113/147/27
f 42/55/85 52/76/65 66/93/64 67/95/86
f 105/138/80 106/139/57 78/107/56 79/109/77
f 36/49/87 54/78/43 90/121/52 91/123/88
f 57/82/89 58/83/44 54/78/43 36/49/87
f 81/111/90 82/112/36 55/79/35 33/46/91
f 69/97/92 70/98/29 114/148/28 115/149/93
f 33/46/91 55/79/35 58/83/44 57/82/89
f 59/84/45 58/83/44 55/79/35 34/47/38
f 34/47/38 49/72/39 60/85/48 59/84/45
f 61/86/49 60/85/48 49/72/39 35/48/42
f 97/133/94 94/125/74 93/128/73 98/134/95
f 73/101/34 74/102/72 110/144/71 111/145/31
f 45/68/96 64/91/68 63/89/67 29/60/97
f 65/92/63 64/91/68 45/68/96 28/59/98
f 51/75/99 66/93/64 65/92/63 28/59/98
f 67/95/86 66/93/64 51/75/99 27/58/100
f 115/149/93 116/150/79 80/110/78 69/97/92
f 101/131/83 100/130/82 103/135/101 104/136/102
f 27/40/100 51/74/99 70/98/29 69/97/92
f 71/99/30 70/98/29 51/74/99 28/41/98
f 28/41/98 45/67/96 72/100/33 71/99/30
f 73/101/34 72/100/33 45/67/96 29/42/97
f 29/42/97 63/90/67 74/102/72 73/101/34
f 75/104/59 74/102/72 63/90/67 44/61/70
f 46/69/69 76/105/60 75/103/59 44/57/70
f 77/106/55 76/105/60 46/69/69 43/56/66
f 52/76/65 78/107/56 77/106/55 43/56/66
f 79/109/77 78/107/56 52/76/65 42/55/85
f 42/64/85 67/94/86 80/110/78 79/108/77
f 69/97/92 80/110/78 67/94/86 27/40/100
f 30/43/103 56/80/104 82/112/36 81/111/90
f 83/113/37 82/112/36 56/80/104 31/44/105
f 31/44/105 50/73/106 84/114/40 83/113/37
f 85/115/41 84/114/40 50/73/106 32/45/107
f 32/45/107 62/88/108 86/116/109 85/115/41
f 87/118/53 86/116/109 62/88/108 41/62/110
f 47/70/111 88/119/54 87/117/53 41/54/110
f 89/120/51 88/119/54 47/70/111 40/53/112
f 53/77/113 90/121/52 89/120/51 40/53/112
f 91/123/88 90/121/52 53/77/113 39/52/114
f 39/65/114 68/96/115 92/124/116 91/122/88
f 81/111/90 92/124/116 68/96/115 30/43/103
f 86/116/109 87/118/53 95/126/75 94/125/74
f 87/118/53 38/63/50 96/127/76 95/126/75
f 38/63/50 61/87/49 93/128/73 96/127/76
f 85/122/41 86/124/109 94/130/74 97/129/94
f 61/81/49 35/66/42 98/132/95 93/131/73
f 35/66/42 85/122/41 97/129/94 98/132/95
f 91/115/88 92/116/116 100/125/82 99/133/81
f 57/87/89 36/48/87 102/134/84 101/128/83
f 36/48/87 91/115/88 99/133/81 102/134/84
f 92/124/116 81/111/90 103/135/101 100/130/82
f 81/111/90 33/46/91 104/136/102 103/135/101
f 33/46/91 57/81/89 101/131/83 104/136/102
f 39/52/114 53/77/113 106/139/57 105/138/80
f 107/140/58 106/139/57 53/77/113 40/53/112
f 40/53/112 47/70/111 108/141/61 107/140/58
f 109/142/62 108/141/61 47/70/111 41/54/110
f 62/88/108 110/144/71 109/143/62 41/62/110
f 111/145/31 110/144/71 62/88/108 32/45/107
f 50/73/106 112/146/32 111/145/31 32/45/107
f 113/147/27 112/146/32 50/73/106 31/44/105
f 56/80/104 114/148/28 113/147/27 31/44/105
f 115/149/93 114/148/28 56/80/104 30/43/103
f 68/96/115 116/150/79 115/149/93 30/43/103
f 105/137/80 116/150/79 68/96/115 39/65/114
