# This file uses centimeters as units for non-parametric coordinates.

mtllib regLeft.mtl
g default
v -1.424016 -0.106169 4.957292
v 0.000000 -0.106169 5.299626
v 1.358705 -0.106169 4.360477
v -1.571942 0.475464 5.715010
v -0.000000 0.611621 5.807069
v 1.571942 0.657827 5.084935
v -1.427916 1.609286 4.867227
v 0.000000 1.647065 4.969609
v 1.427916 1.609286 4.019299
v -1.363856 2.390611 -1.004108
v 0.000000 3.241885 -1.303904
v 1.363856 2.390611 -1.004108
v -1.571942 1.018830 -1.366074
v 0.000000 1.018830 -2.115849
v 1.380828 1.018830 -1.366074
v -1.286482 -0.106169 -1.021822
v 0.000000 -0.106169 -1.662451
v 0.965543 -0.106169 -1.021822
v -1.363856 2.400126 2.112526
v 0.000000 2.304193 2.112526
v 1.363856 2.092712 2.112526
v 1.571942 1.018830 2.112526
v 1.331007 -0.106169 2.112526
v 0.000000 -0.106169 2.112526
v -1.130087 -0.106169 2.112526
v -1.816559 1.018830 2.112526
v -1.865620 0.457097 5.101563
v 1.782992 0.627583 4.232114
vt 0.375000 0.000000
vt 0.500000 0.000000
vt 0.625000 0.000000
vt 0.375000 0.125000
vt 0.500000 0.125000
vt 0.625000 0.125000
vt 0.375000 0.250000
vt 0.500000 0.250000
vt 0.625000 0.250000
vt 0.375000 0.500000
vt 0.500000 0.500000
vt 0.625000 0.500000
vt 0.375000 0.625000
vt 0.500000 0.625000
vt 0.625000 0.625000
vt 0.375000 0.750000
vt 0.500000 0.750000
vt 0.625000 0.750000
vt 0.375000 1.000000
vt 0.500000 1.000000
vt 0.625000 1.000000
vt 0.875000 0.000000
vt 0.875000 0.125000
vt 0.875000 0.250000
vt 0.125000 0.000000
vt 0.125000 0.125000
vt 0.125000 0.250000
vt 0.260555 0.250000
vt 0.375000 0.364445
vt 0.500000 0.364445
vt 0.625000 0.364445
vt 0.739445 0.250000
vt 0.739445 0.125000
vt 0.625000 0.885555
vt 0.739445 0.000000
vt 0.500000 0.885555
vt 0.260555 0.000000
vt 0.375000 0.885555
vt 0.260555 0.125000
vt 0.361482 0.125000
vt 0.649381 0.125000
vn -0.408199 -0.906985 0.103691
vn 0.062882 -0.968806 0.239709
vn 0.211609 0.166728 0.963028
vn -0.275599 0.074478 0.958383
vn 0.400980 -0.904118 0.147596
vn 0.602572 0.184045 0.776553
vn 0.111949 0.887663 0.446678
vn -0.579151 0.747455 0.325417
vn 0.571388 0.763080 0.302035
vn -0.595091 0.793970 0.124414
vn 0.074492 0.977273 0.198464
vn 0.044905 0.967441 -0.249080
vn -0.699675 0.644564 -0.308209
vn 0.674808 0.726545 0.129486
vn 0.705115 0.658347 -0.263424
vn -0.000538 0.055917 -0.998435
vn -0.921061 -0.020655 -0.388870
vn 0.917343 -0.042203 -0.395854
vn 0.000504 -0.938206 -0.346076
vn -0.559025 -0.802278 -0.209382
vn 0.537379 -0.816964 -0.209266
vn 0.000000 -1.000000 0.000000
vn -0.443479 -0.895939 -0.024878
vn 0.546929 -0.835880 -0.046618
vn 0.997967 -0.043071 -0.046979
vn -0.999950 0.005385 -0.008420
vn 0.991121 -0.132035 -0.015715
vn -0.979108 -0.203327 -0.002252
s 1
g pCube7
usemtl blinn1SG
f 1/1/1 2/2/2 5/5/3 4/4/4
f 2/2/2 3/3/5 6/6/6 5/5/3
f 4/4/4 5/5/3 8/8/7 7/7/8
f 5/5/3 6/6/6 9/9/9 8/8/7
f 19/29/10 20/30/11 11/11/12 10/10/13
f 20/30/11 21/31/14 12/12/15 11/11/12
f 10/10/13 11/11/12 14/14/16 13/13/17
f 11/11/12 12/12/15 15/15/18 14/14/16
f 13/13/17 14/14/16 17/17/19 16/16/20
f 14/14/16 15/15/18 18/18/21 17/17/19
f 16/16/20 17/17/19 24/36/22 25/38/23
f 17/17/19 18/18/21 23/34/24 24/36/22
f 22/33/25 23/35/24 18/22/21 15/23/18
f 21/32/14 22/33/25 15/23/18 12/24/15
f 16/25/20 25/37/23 26/39/26 13/26/17
f 13/26/17 26/39/26 19/28/10 10/27/13
f 7/7/8 8/8/7 20/30/11 19/29/10
f 8/8/7 9/9/9 21/31/14 20/30/11
f 9/9/9 28/41/27 22/33/25 21/32/14
f 3/3/5 23/35/24 22/33/25 28/41/27
f 24/36/22 23/34/24 3/21/5 2/20/2
f 25/38/23 24/36/22 2/20/2 1/19/1
f 27/40/28 1/1/1 4/4/4
f 7/7/8 27/40/28 4/4/4
f 19/28/10 26/39/26 27/40/28 7/7/8
f 26/39/26 25/37/23 1/1/1 27/40/28
f 6/6/6 28/41/27 9/9/9
f 3/3/5 28/41/27 6/6/6
g default
v -0.885341 2.291211 0.529446
v 0.000000 1.852767 1.049534
v 0.885341 2.291211 0.529446
v -1.430250 10.854714 1.213810
v 0.000000 10.854714 1.631853
v 1.430250 10.854714 1.213810
v -1.488229 18.555182 1.026857
v 0.000000 19.479986 1.778386
v 1.488229 18.555182 1.026857
v -1.353886 19.253329 -0.890378
v 0.000000 20.211797 -1.961218
v 1.353886 19.253329 -0.890378
v -1.430250 10.854714 -1.254735
v 0.000000 10.854714 -1.839997
v 1.430250 10.854714 -1.254735
v -0.784662 2.508441 -0.933256
v 0.000000 1.852767 -1.433115
v 0.784662 2.508441 -0.933256
v -1.786037 19.310423 -0.043200
v 0.000000 20.570152 -0.136051
v 1.786037 19.310423 -0.043200
v 1.775281 10.854714 -0.043200
v 1.078865 1.852767 -0.043200
v 0.000000 0.969212 -0.136051
v -1.078865 1.852767 -0.043200
v -1.775281 10.854714 -0.043200
vt 0.375000 0.000000
vt 0.500000 0.000000
vt 0.625000 0.000000
vt 0.375000 0.125000
vt 0.500000 0.125000
vt 0.625000 0.125000
vt 0.375000 0.250000
vt 0.500000 0.250000
vt 0.625000 0.250000
vt 0.375000 0.500000
vt 0.500000 0.500000
vt 0.625000 0.500000
vt 0.375000 0.625000
vt 0.500000 0.625000
vt 0.625000 0.625000
vt 0.375000 0.750000
vt 0.500000 0.750000
vt 0.625000 0.750000
vt 0.375000 1.000000
vt 0.500000 1.000000
vt 0.625000 1.000000
vt 0.875000 0.000000
vt 0.875000 0.125000
vt 0.875000 0.250000
vt 0.125000 0.000000
vt 0.125000 0.125000
vt 0.125000 0.250000
vt 0.247697 0.250000
vt 0.375000 0.377303
vt 0.500000 0.377303
vt 0.625000 0.377303
vt 0.752303 0.250000
vt 0.752303 0.125000
vt 0.625000 0.872697
vt 0.752303 0.000000
vt 0.500000 0.872697
vt 0.247697 0.000000
vt 0.375000 0.872697
vt 0.247697 0.125000
vn -0.706346 -0.137767 0.694332
vn -0.000000 -0.130791 0.991410
vn -0.000000 -0.036507 0.999333
vn -0.674562 -0.035764 0.737352
vn 0.706346 -0.137767 0.694332
vn 0.674562 -0.035764 0.737352
vn 0.000000 0.142488 0.989797
vn -0.728870 0.137637 0.670675
vn 0.728870 0.137637 0.670675
vn -0.985864 0.167162 0.011386
vn 0.000000 0.972786 0.231707
vn 0.000000 0.116971 -0.993135
vn -0.758854 0.141150 -0.635780
vn 0.985864 0.167162 0.011386
vn 0.758854 0.141150 -0.635780
vn 0.000000 -0.015530 -0.999879
vn -0.730129 -0.023198 -0.682915
vn 0.730129 -0.023198 -0.682915
vn 0.000000 -0.119401 -0.992846
vn -0.722279 -0.125796 -0.680065
vn 0.722279 -0.125796 -0.680065
vn -0.000000 -0.994368 -0.105979
vn -0.988520 -0.148578 -0.027427
vn 0.988520 -0.148578 -0.027427
vn 0.998807 -0.035341 -0.033704
vn -0.998807 -0.035341 -0.033704
s 1
g pasted__pasted__pCube7 pasted__group13 group14
usemtl blinn1SG
f 29/42/29 30/43/30 33/46/31 32/45/32
f 30/43/30 31/44/33 34/47/34 33/46/31
f 32/45/32 33/46/31 36/49/35 35/48/36
f 33/46/31 34/47/34 37/50/37 36/49/35
f 47/70/38 48/71/39 39/52/40 38/51/41
f 48/71/39 49/72/42 40/53/43 39/52/40
f 38/51/41 39/52/40 42/55/44 41/54/45
f 39/52/40 40/53/43 43/56/46 42/55/44
f 41/54/45 42/55/44 45/58/47 44/57/48
f 42/55/44 43/56/46 46/59/49 45/58/47
f 44/57/48 45/58/47 52/77/50 53/79/51
f 45/58/47 46/59/49 51/75/52 52/77/50
f 50/74/53 51/76/52 46/63/49 43/64/46
f 49/73/42 50/74/53 43/64/46 40/65/43
f 44/66/48 53/78/51 54/80/54 41/67/45
f 41/67/45 54/80/54 47/69/38 38/68/41
f 35/48/36 36/49/35 48/71/39 47/70/38
f 36/49/35 37/50/37 49/72/42 48/71/39
f 34/47/34 50/74/53 49/73/42 37/50/37
f 31/44/33 51/76/52 50/74/53 34/47/34
f 52/77/50 51/75/52 31/62/33 30/61/30
f 53/79/51 52/77/50 30/61/30 29/60/29
f 54/80/54 53/78/51 29/42/29 32/45/32
f 47/69/38 54/80/54 32/45/32 35/48/36
